<?xml version="1.0" encoding="utf-8"?>
<!-- Generator: Adobe Illustrator 23.0.3, SVG Export Plug-In . SVG Version: 6.00 Build 0)  -->
<svg version="1.1" id="Selecting_food_to_eat" xmlns="http://www.w3.org/2000/svg" xmlns:xlink="http://www.w3.org/1999/xlink"
	 x="0px" y="0px" viewBox="0 0 1920 1080" style="enable-background:new 0 0 1920 1080;" xml:space="preserve">
<style type="text/css">
	.st0{opacity:0.1;fill:#2A94F4;}
	.st1{fill:#FCD2B1;}
	.st2{fill:#0B4870;}
	.st3{fill:#CCE9FF;}
	.st4{fill:#0E538C;}
	.st5{fill:#FFBE55;}
	.st6{fill:#FFE3CA;}
	.st7{fill:#FFFFFF;}
	.st8{fill:#F7F7F7;}
	.st9{fill:#D3D3D3;}
	.st10{fill:#F2F2F2;}
</style>
<ellipse class="st0" cx="905.01" cy="974.29" rx="567.8" ry="67.16"/>
<path class="st1" d="M1106.31,899.73v29.74c0,0,19.23,3.31,21.06,0c1.84-3.31,7.74-45.52,7.74-45.52S1106.31,878.43,1106.31,899.73z
	"/>
<path class="st2" d="M1131.43,921.96l-27.85-2.65l-2.8-9.02l-8.82,0.62c0,0,3.76,14.69,0.2,19.96
	c-3.57,5.27-17.71,15.79-26.57,12.42c-8.85-3.37-7.06,18.53-7.06,18.53s41.51,0.56,52.36-5.91c10.85-6.48,16.1-1.83,16.1-1.83
	l9.28,0.22C1136.27,954.3,1145.57,933.98,1131.43,921.96z"/>
<path class="st2" d="M1278.89,144.17c0,0,17.41-13.76,17.97-39.03c1.36-61.33-52.57-88.1-100.9-55.27s-20.01,75.26-15.67,85.18
	s85.86,23.99,85.86,23.99L1278.89,144.17z"/>
<path class="st1" d="M1211.21,894.94l10.26,27.91c0,0,19.19-3.53,19.77-7.27c0.58-3.74-8.44-45.4-8.44-45.4
	S1203.86,874.94,1211.21,894.94z"/>
<path class="st3" d="M1393.73,625.79l-122.05-17.06l44.1-378.75c3.24-27.85,31.86-45.19,58.05-35.17l0,0
	c44.53,17.04,71.41,62.56,64.8,109.78L1393.73,625.79z"/>
<polygon class="st3" points="1162.22,496.75 1162.22,980.55 1198.07,980.55 1198.07,634.44 1376.24,634.44 1376.24,980.55 
	1412.1,980.55 1412.1,496.75 "/>
<path class="st2" d="M1295.66,466.34c0,0,18.44,49.56-19.88,89.07c-17.79,18.34-112.61,33.98-128.71,43.89
	c0,0,39.83,55.72,53.15,109.9c14.84,60.41,38.02,179.32,38.02,179.32l-27.73,6.54c0,0-137.93-275.2-141.64-299.99
	c-2.91-19.42,12.9-60.61,118.63-105.08C1216.68,477.72,1248.24,478.67,1295.66,466.34z"/>
<path class="st4" d="M1358.04,452.24c0,0,33.07,53.89-5.25,93.4c-17.79,18.34-177.29,68.76-193.4,78.67c0,0,7.04,48.02,3.96,106.26
	s-29.43,168.21-29.43,168.21h-27.93c0,0-12.98-236.05-3.99-301.1c2.69-19.45,27.33-56.46,133.07-100.93
	c10.79-4.54,35.6-33.23,46.93-39.08C1301.32,447.68,1328.14,460.02,1358.04,452.24z"/>
<path class="st2" d="M1242.46,904.46l-26.97,7.43l-5.83-7.43l-8.02,3.72c0,0,8.75,12.39,7.29,18.59
	c-1.46,6.2-10.93,21.06-20.41,21.06s0,19.83,0,19.83s39-14.25,46.83-24.16s14.39-7.43,14.39-7.43l8.75-3.1
	C1258.5,932.96,1259.96,910.66,1242.46,904.46z"/>
<rect x="753.33" y="466.34" class="st2" width="109.85" height="465.89"/>
<path class="st1" d="M1207.33,260.64c0,0-20.43,64.13-32.05,85.24c-9.88,17.95-95.77,3.38-121.28-1.39
	c-4.5-0.84-7.12-1.38-7.12-1.38l-4.82,18.78c0,0,109.34,48.99,150.39,21.89c29.98-19.8,63.04-117.8,63.04-117.8L1207.33,260.64z"/>
<path class="st5" d="M1243.67,196.93c0,0,36.76,2.32,32.36,39.42c-4.4,37.09-36.02,83.47-36.02,83.47l-48.32-13.01
	C1191.69,306.8,1205.36,213.7,1243.67,196.93z"/>
<path class="st5" d="M1254.11,189.4c0,0-27.88,8.67-36.55,61.33s7.9,209.51,8.52,226.13s160.35,59.22,146.01,11.8
	c-23.89-78.99-3.59-251.51-25.66-277.11C1311.31,170.81,1254.11,189.4,1254.11,189.4z"/>
<path class="st6" d="M1189.06,123.73c0,0,9.29,53.28,57.62,42.13l9.29,41.51c0,0,30.32,8.52,48.29-16.26l-25.36-46.93
	c0,0-10.53,9.29-10.53,3.1c0-6.2,4.96-30.36,0-37.17c-4.96-6.81-17.35-9.29-19.21,6.2c-1.86,15.49-26.77-27.44-26.77-41.74
	c0-5.58-16.98-10.5-16.6,4.57C1206.41,103.9,1189.06,123.73,1189.06,123.73z"/>
<path class="st7" d="M1249.16,189.4"/>
<path class="st6" d="M1274.99,295.65c0,0-27.94,61.23-41.99,80.81c-11.95,16.64-95.49-8.07-120.25-15.85
	c-4.36-1.37-6.9-2.22-6.9-2.22l-7.03,18.07c0,0,102.72,61.69,146.7,39.67c32.13-16.08,76.64-109.44,76.64-109.44L1274.99,295.65z"/>
<path class="st5" d="M1312.5,211.55c13.18-11.03,24.66-7.67,35.57,5.61c5.14,6.27,5.49,10.97,3.91,24.24
	c-4.72,39.8-42.63,90.27-42.63,90.27l-43.2-17.14C1266.15,314.52,1282.52,236.64,1312.5,211.55z"/>
<path class="st2" d="M1272.79,513.2c0,38.32-207.98,69.39-464.53,69.39s-464.53-31.07-464.53-69.39c0-5.51-8.12-26.85,0-31.99
	c48.38-30.61,244.86-37.4,464.53-37.4s416.16,6.79,464.53,37.4C1280.91,486.34,1272.79,507.69,1272.79,513.2z"/>
<ellipse class="st4" cx="808.26" cy="481.2" rx="464.53" ry="69.39"/>
<ellipse class="st8" cx="1124.3" cy="466.34" rx="96.65" ry="23.84"/>
<g>
	<polygon class="st9" points="1066.3,427.49 999.33,470.35 941.16,260.02 1008.13,217.15 	"/>
	<polygon class="st10" points="1137.03,441.56 999.33,470.35 941.16,260.02 1078.86,231.23 	"/>
	<path class="st6" d="M1083.43,330.5c0,0,16.67,6.82,31.47,24.95c14.8,18.12,7.7,33.93,7.7,33.93s-40.7-12.56-61.24-31.12
		S1063.31,326,1083.43,330.5z"/>
	<path class="st6" d="M1106.31,330.5c0,0,10.03,27.95,2.71,28.92c-7.32,0.97,10.11,17.45,10.11,17.45s3.8-15.85,0-26.08
		S1106.31,330.5,1106.31,330.5z"/>
</g>
<rect x="644.29" y="932.23" class="st2" width="327.93" height="48.32"/>
<ellipse class="st10" cx="528.63" cy="466.34" rx="96.65" ry="23.84"/>
</svg>
